<svg width="151" height="151" viewBox="0 0 151 151" fill="none" xmlns="http://www.w3.org/2000/svg">
<g clip-path="url(#clip0_23_50)">
<path d="M84.3145 109.907L87.9081 87.4467L63.6513 77.5643L60.0577 111.703L84.3145 109.907Z" fill="#A0616A"/>
<path d="M108.694 143.099C106.611 144.115 104.489 145.031 102.335 145.844C98.0266 147.475 93.5798 148.705 89.0178 149.526C84.5591 150.331 79.9813 150.74 75.4035 150.74C69.219 150.74 63.0704 149.998 57.124 148.53C54.7955 147.959 52.447 147.261 50.1384 146.447C49.8964 146.36 49.6505 146.273 49.4084 146.185C46.5443 145.146 43.7278 143.928 41.0185 142.552C40.6535 142.37 40.2886 142.183 39.9236 141.985C39.519 141.778 39.1184 141.56 38.7137 141.334C38.198 141.052 37.6863 140.759 37.1745 140.461C35.4609 139.47 33.775 138.398 32.1644 137.284L32.0573 137.213C31.9621 137.145 31.8669 137.082 31.7756 137.014C31.8351 136.701 31.8907 136.415 31.9422 136.161C32.1406 135.166 32.2715 134.618 32.2715 134.618L43.1328 112.181L46.1596 105.93L47.6352 105.323L58.7822 100.741H86.0268L94.623 104.295C94.623 104.295 94.6667 104.458 94.7539 104.771C95.6108 107.846 100.609 125.3 108.364 142.377C108.471 142.615 108.583 142.857 108.694 143.099L108.694 143.099Z" fill="#6C63FF"/>
<path d="M78.1847 94.6668C91.8461 94.6668 102.921 83.592 102.921 69.9306C102.921 56.2692 91.8461 45.1945 78.1847 45.1945C64.5234 45.1945 53.4486 56.2692 53.4486 69.9306C53.4486 83.592 64.5234 94.6668 78.1847 94.6668Z" fill="#A0616A"/>
<path d="M47.6786 105.11L47.636 105.322L40.0945 141.179L40.0293 141.492L39.9242 141.985C39.5183 141.778 39.1181 141.56 38.7151 141.335C38.1985 141.052 37.6876 140.759 37.1739 140.461C35.4624 139.471 33.7764 138.398 32.1642 137.285L32.0563 137.211C31.9627 137.146 31.8662 137.081 31.7753 137.015C30.5435 136.155 29.3429 135.259 28.1706 134.333C28.1621 134.328 28.1565 134.322 28.1479 134.313C26.0561 132.627 24.0409 130.814 22.1136 128.886C20.8704 127.643 19.6755 126.363 18.5316 125.049L18.7048 124.322L18.7218 124.249L18.9375 123.323C20.8562 115.22 27.3475 109.001 35.5248 107.434L46.39 105.354L47.6786 105.11H47.6786Z" fill="#6C63FF"/>
<path d="M124.716 132.615C121.515 135.34 118.083 137.808 114.461 139.974C114.108 140.188 113.747 140.398 113.386 140.608C111.847 141.497 110.28 142.326 108.694 143.099C106.611 144.115 104.489 145.031 102.335 145.845L102.168 145.059L93.6511 104.561L94.7539 104.771L105.806 106.89C113.981 108.457 120.475 114.677 122.391 122.781L124.506 131.734L124.716 132.615H124.716Z" fill="#6C63FF"/>
<path d="M106.67 76.5429C106.028 78.9389 102.795 89.6456 94.5158 91.8987C92.8895 92.343 89.0098 92.8548 90.0373 91.8987C90.2713 91.6806 90.4974 91.4664 90.7236 91.256C99.7085 82.8066 103.374 77.6419 101.7 66.1775C100.637 58.8782 88.5299 52.2496 81.7187 51.591C78.8466 51.3137 75.1812 52.2852 72.7615 54.7886C68.7668 58.9139 69.4253 71.5765 67.2118 79.0145C66.6168 81.0056 65.8194 82.6242 64.673 83.6039C63.9589 84.2148 63.5027 83.4373 63.1655 82.1639C62.4476 79.4584 62.2612 74.5041 61.2416 75.9041C58.2943 79.9624 61.1028 85.3413 61.9517 87.4162C62.1262 87.8408 62.3047 88.2491 62.4832 88.638V88.6419C62.5864 88.8639 62.6935 89.0862 62.7966 89.2966V89.3005C65.6289 95.0761 69.0326 97.1428 72.0316 100.741C73.2097 102.149 74.3244 103.787 75.3201 105.977C76.0024 107.477 76.4943 108.984 76.8315 110.464C78.5491 117.882 76.5102 124.622 75.9587 126.454C74.8044 130.271 72.821 136.828 67.0016 140.529C59.6945 145.178 53.0262 141.08 49.8368 145.495C49.7971 145.547 49.7614 145.598 49.7257 145.65C49.6067 145.829 49.4996 146.007 49.4084 146.185C46.5443 145.146 43.7278 143.928 41.0185 142.552C40.6534 142.37 40.2885 142.183 39.9236 141.984C39.519 141.778 39.1183 141.56 38.7137 141.334C38.6978 141.025 38.6819 140.715 38.67 140.402C38.436 135.035 38.789 129.136 40.1259 123.253C40.9827 119.496 41.8317 115.771 43.1327 112.181C43.9817 109.841 45.021 107.556 46.3895 105.354C47.4845 103.585 48.7855 101.867 50.3644 100.217C53.8315 96.5954 56.9138 95.0842 57.4017 91.2599C58.0998 85.8015 52.4153 84.1594 50.3644 75.9041C48.9641 70.2594 47.5003 62.1234 48.9205 56.641C50.2613 51.4604 51.4276 46.9659 55.3191 42.5625C56.2552 41.5072 63.9391 34.1685 72.8408 32.9625C76.9425 32.4113 80.6001 37.6635 85.5587 38.7939C91.259 40.0913 94.5238 40.8331 97.7132 43.2725C103.104 47.3901 104.623 53.5469 106.032 59.2672C107.135 63.7419 108.563 69.5295 106.67 76.5429L106.67 76.5429H106.67Z" fill="#2F2E41"/>
<path d="M128.886 22.1135C114.627 7.8537 95.6664 0 75.5 0C55.3336 0 36.3734 7.8537 22.1135 22.1135C7.8537 36.3734 0 55.3336 0 75.5C0 93.9067 6.54238 111.309 18.5316 125.049C19.6754 126.363 20.8704 127.643 22.1135 128.886C24.0408 130.814 26.056 132.627 28.1479 134.313C28.1564 134.322 28.1621 134.328 28.1706 134.333C41.542 145.133 58.0697 151 75.5 151C95.6664 151 114.627 143.146 128.886 128.886C143.146 114.627 151 95.6664 151 75.5C151 55.3336 143.146 36.3734 128.886 22.1135V22.1135ZM124.586 132.068C119.741 136.283 114.348 139.882 108.533 142.749C106.492 143.757 104.4 144.673 102.26 145.494C93.9464 148.684 84.9233 150.432 75.5 150.432C66.4059 150.432 57.6865 148.803 49.6171 145.823C46.3048 144.602 43.1031 143.152 40.0292 141.492C39.5779 141.247 39.1294 141 38.6838 140.748C36.3393 139.42 34.0715 137.969 31.8945 136.402C27.0296 132.911 22.5989 128.852 18.7047 124.322C7.40525 111.198 0.567669 94.1337 0.567669 75.5C0.567669 34.1822 34.1822 0.567669 75.5 0.567669C116.818 0.567669 150.432 34.1822 150.432 75.5C150.432 98.0592 140.413 118.322 124.586 132.068Z" fill="#3F3D56"/>
</g>
<defs>
<clipPath id="clip0_23_50">
<rect width="151" height="151" fill="white"/>
</clipPath>
</defs>
</svg>
