<svg width="215" height="197" viewBox="0 0 215 197" fill="none" xmlns="http://www.w3.org/2000/svg">
<g clip-path="url(#clip0_19_723)">
<path d="M50.2482 67.3349H48.7228V86.6502H50.2482V67.3349Z" fill="#F2F2F2"/>
<path d="M82.5061 196.662H22.4048L22.4719 188.624L22.478 187.925L23.015 125.02H82.201L82.2773 143.192L82.2804 143.891L82.5061 196.662Z" fill="#E6E6E6"/>
<path d="M155.095 59.8656L164.82 40.8879C165.23 40.0825 165.348 39.1238 165.149 38.2188C164.951 37.3138 164.451 36.5349 163.758 36.0504C163.399 35.7997 163 35.6357 162.584 35.5684C162.169 35.5011 161.746 35.5319 161.341 35.6589C160.937 35.7859 160.559 36.0065 160.23 36.3072C159.902 36.6079 159.63 36.9823 159.432 37.4078L149.855 57.4774L143.589 69.3901C143.041 69.2982 142.482 69.4027 141.988 69.6893C141.493 69.9759 141.088 70.4308 140.826 70.9922C140.564 71.5535 140.458 72.1941 140.523 72.827C140.589 73.4598 140.821 74.0541 141.19 74.5293C141.559 75.0044 142.046 75.3373 142.585 75.4827C143.124 75.6281 143.689 75.579 144.203 75.342C144.717 75.105 145.155 74.6917 145.458 74.1581C145.76 73.6246 145.913 72.9967 145.895 72.3598L155.095 59.8656Z" fill="#A0616A"/>
<path d="M164.353 45.7837C164.547 45.7309 164.721 45.6063 164.847 45.4288C164.974 45.2514 165.047 45.031 165.054 44.8015C165.068 44.5186 165.158 44.2476 165.312 44.0265C165.342 43.9841 165.375 43.9441 165.409 43.9066C165.623 43.6868 165.788 43.4107 165.89 43.1019C165.992 42.793 166.027 42.4604 165.993 42.1325C165.868 41.0549 166.206 39.8056 166.621 38.7738C167.074 37.6448 167.588 36.5271 167.793 35.3058C168.09 33.5442 167.64 31.4566 165.753 30.9341C164.948 30.7262 164.105 30.8441 163.367 31.268C161.812 32.1307 160.863 33.8469 159.968 35.4988C159.968 35.4988 157.831 38.0591 156.341 39.3034C156.73 39.477 156.682 40.1911 156.359 40.4956C156.036 40.8001 155.588 40.8293 155.176 40.9053C154.656 41.0012 154.066 41.2747 154.098 42.0189C154.11 42.1966 154.153 42.3696 154.226 42.527C154.299 42.6843 154.399 42.8227 154.521 42.9333C156.777 45.0799 159.394 46.6662 162.209 47.5926C162.834 47.7979 163.535 47.9619 164.11 47.6123C164.684 47.2626 164.908 46.1732 164.353 45.7837Z" fill="#6C63FF"/>
<path d="M179.184 78.7191L159.353 78.3679L158.743 73.1001L160.574 61.1598H176.133L179.184 78.7191Z" fill="#A0616A"/>
<path d="M152.562 189.282H149.195L147.592 174.331H152.562V189.282Z" fill="#A0616A"/>
<path d="M154.34 195.998H151.925L151.494 193.373L150.39 195.998H143.985C143.678 195.998 143.379 195.885 143.132 195.676C142.884 195.466 142.702 195.171 142.61 194.834C142.519 194.496 142.524 194.134 142.624 193.8C142.724 193.466 142.914 193.178 143.167 192.977L148.282 188.911V186.257L153.661 186.627L154.34 195.998Z" fill="#2F2E41"/>
<path d="M198.105 176.698L195.343 178.915L186.599 167.706L190.676 164.434L198.105 176.698Z" fill="#A0616A"/>
<path d="M202.9 181.037L200.919 182.627L199.261 180.758L199.66 183.638L194.406 187.855C194.154 188.057 193.853 188.161 193.546 188.152C193.239 188.143 192.943 188.022 192.7 187.805C192.458 187.588 192.282 187.288 192.198 186.948C192.114 186.608 192.127 186.246 192.234 185.915L194.409 179.212L193.091 177.036L197.687 173.797L202.9 181.037Z" fill="#2F2E41"/>
<path d="M214.639 196.892L0.361338 197C0.265362 196.999 0.173507 196.955 0.105837 196.877C0.038168 196.798 0.000183105 196.692 0.000183105 196.582C0.000183105 196.471 0.038168 196.365 0.105837 196.287C0.173507 196.209 0.265362 196.164 0.361338 196.164L214.639 196.056C214.735 196.056 214.827 196.101 214.894 196.179C214.962 196.257 215 196.363 215 196.474C215 196.584 214.962 196.691 214.894 196.769C214.827 196.847 214.735 196.892 214.639 196.892Z" fill="#CACACA"/>
<path d="M84.945 117.782H19.2001V126.129H84.945V117.782Z" fill="#E6E6E6"/>
<path d="M62.4889 107.726L62.2663 106.827H62.3163C62.4542 106.827 62.5863 106.763 62.6837 106.651C62.7811 106.539 62.8358 106.386 62.8358 106.228C62.8358 106.069 62.7811 105.917 62.6837 105.804C62.5863 105.692 62.4542 105.629 62.3163 105.628C59.9624 104.985 57.5102 104.985 55.1563 105.628C55.0188 105.628 54.8868 105.691 54.7892 105.802C54.6917 105.914 54.6365 106.065 54.6356 106.224C54.6348 106.382 54.6885 106.534 54.7849 106.647C54.8813 106.76 55.0126 106.824 55.1501 106.826L54.9384 107.726C53.2956 110.355 54.0993 114.723 54.9384 119.115H62.4889C63.4381 114.327 64.1568 109.781 62.4889 107.726Z" fill="#E6E6E6"/>
<path d="M58.7363 114.769C59.8867 114.769 60.8192 113.696 60.8192 112.372C60.8192 111.047 59.8867 109.974 58.7363 109.974C57.586 109.974 56.6534 111.047 56.6534 112.372C56.6534 113.696 57.586 114.769 58.7363 114.769Z" fill="white"/>
<path d="M68.1852 94.8969L67.9626 93.9978H68.0126C68.1507 93.9978 68.2831 93.9346 68.3808 93.8222C68.4784 93.7098 68.5333 93.5573 68.5333 93.3984C68.5333 93.2394 68.4784 93.0869 68.3808 92.9745C68.2831 92.8621 68.1507 92.799 68.0126 92.799C65.6587 92.1554 63.2065 92.1554 60.8526 92.799C60.7151 92.7989 60.5831 92.8615 60.4855 92.973C60.388 93.0846 60.3327 93.2361 60.3319 93.3945C60.3311 93.5528 60.3848 93.705 60.4812 93.818C60.5776 93.9309 60.7089 93.9953 60.8464 93.9971L60.6347 94.8969C58.9919 97.526 59.7956 101.893 60.6347 106.286H68.1852C69.1344 101.498 69.8531 96.9513 68.1852 94.8969Z" fill="#E6E6E6"/>
<path d="M64.4326 101.94C65.583 101.94 66.5155 100.867 66.5155 99.5423C66.5155 98.2181 65.583 97.1447 64.4326 97.1447C63.2823 97.1447 62.3497 98.2181 62.3497 99.5423C62.3497 100.867 63.2823 101.94 64.4326 101.94Z" fill="white"/>
<path d="M57.2022 94.8969L56.9796 93.9978H57.0296C57.1677 93.9978 57.3001 93.9346 57.3978 93.8222C57.4955 93.7098 57.5503 93.5573 57.5503 93.3984C57.5503 93.2394 57.4955 93.0869 57.3978 92.9745C57.3001 92.8621 57.1677 92.799 57.0296 92.799C54.6757 92.1554 52.2236 92.1554 49.8696 92.799C49.7321 92.7989 49.6001 92.8615 49.5026 92.973C49.405 93.0846 49.3498 93.2361 49.3489 93.3945C49.3481 93.5528 49.4018 93.705 49.4982 93.818C49.5946 93.9309 49.7259 93.9953 49.8635 93.9971L49.6517 94.8969C48.0089 97.526 48.8126 101.893 49.6517 106.286H57.2022C58.1514 101.498 58.8701 96.9513 57.2022 94.8969Z" fill="#E6E6E6"/>
<path d="M53.4497 101.94C54.6 101.94 55.5326 100.867 55.5326 99.5423C55.5326 98.2181 54.6 97.1447 53.4497 97.1447C52.2993 97.1447 51.3668 98.2181 51.3668 99.5423C51.3668 100.867 52.2993 101.94 53.4497 101.94Z" fill="white"/>
<path d="M52.321 82.6054L52.0984 81.7063H52.1484C52.2865 81.7063 52.419 81.6431 52.5166 81.5307C52.6143 81.4183 52.6692 81.2658 52.6692 81.1068C52.6692 80.9479 52.6143 80.7954 52.5166 80.683C52.419 80.5706 52.2865 80.5074 52.1484 80.5074C49.7945 79.8639 47.3424 79.8639 44.9885 80.5074C44.8509 80.5074 44.719 80.5699 44.6214 80.6815C44.5238 80.7931 44.4686 80.9446 44.4678 81.1029C44.467 81.2613 44.5206 81.4135 44.617 81.5264C44.7134 81.6394 44.8448 81.7037 44.9823 81.7055L44.7706 82.6054C43.1277 85.2345 43.9314 89.6018 44.7706 93.9943H52.3211C53.2702 89.2067 53.989 84.6598 52.321 82.6054Z" fill="#E6E6E6"/>
<path d="M48.5684 89.6485C49.7187 89.6485 50.6513 88.575 50.6513 87.2509C50.6513 85.9267 49.7187 84.8532 48.5684 84.8532C47.418 84.8532 46.4855 85.9267 46.4855 87.2509C46.4855 88.575 47.418 89.6485 48.5684 89.6485Z" fill="white"/>
<path d="M63.3039 82.6054L63.0813 81.7063H63.1313C63.2694 81.7063 63.4018 81.6431 63.4995 81.5307C63.5971 81.4183 63.652 81.2658 63.652 81.1068C63.652 80.9479 63.5971 80.7954 63.4995 80.683C63.4018 80.5706 63.2694 80.5074 63.1313 80.5074C60.7774 79.8639 58.3252 79.8639 55.9713 80.5074C55.8338 80.5074 55.7018 80.5699 55.6042 80.6815C55.5067 80.7931 55.4514 80.9446 55.4506 81.1029C55.4498 81.2613 55.5035 81.4135 55.5999 81.5264C55.6963 81.6394 55.8276 81.7037 55.9651 81.7055L55.7534 82.6054C54.1106 85.2345 54.9143 89.6018 55.7534 93.9943H63.3039C64.2531 89.2067 64.9718 84.6598 63.3039 82.6054Z" fill="#E6E6E6"/>
<path d="M59.5513 89.6485C60.7017 89.6485 61.6342 88.575 61.6342 87.2509C61.6342 85.9267 60.7017 84.8532 59.5513 84.8532C58.401 84.8532 57.4684 85.9267 57.4684 87.2509C57.4684 88.575 58.401 89.6485 59.5513 89.6485Z" fill="white"/>
<path d="M45.9141 94.8969L45.6915 93.9978H45.7415C45.8796 93.9978 46.0121 93.9346 46.1097 93.8222C46.2074 93.7098 46.2622 93.5573 46.2622 93.3984C46.2622 93.2394 46.2074 93.0869 46.1097 92.9745C46.0121 92.8621 45.8796 92.799 45.7415 92.799C43.3876 92.1554 40.9355 92.1554 38.5816 92.799C38.444 92.7989 38.312 92.8615 38.2145 92.973C38.1169 93.0846 38.0617 93.2361 38.0609 93.3945C38.06 93.5528 38.1137 93.705 38.2101 93.818C38.3065 93.9309 38.4378 93.9953 38.5754 93.9971L38.3636 94.8969C36.7208 97.526 37.5245 101.893 38.3636 106.286H45.9141C46.8633 101.498 47.582 96.9513 45.9141 94.8969Z" fill="#E6E6E6"/>
<path d="M42.1616 101.94C43.312 101.94 44.2445 100.867 44.2445 99.5423C44.2445 98.2181 43.312 97.1447 42.1616 97.1447C41.0113 97.1447 40.0787 98.2181 40.0787 99.5423C40.0787 100.867 41.0113 101.94 42.1616 101.94Z" fill="white"/>
<path d="M146.286 60.1295L146.064 59.2303H146.114C146.252 59.2303 146.384 59.1672 146.482 59.0548C146.58 58.9424 146.635 58.7899 146.635 58.6309C146.635 58.472 146.58 58.3195 146.482 58.2071C146.384 58.0947 146.252 58.0315 146.114 58.0315C143.76 57.388 141.308 57.388 138.954 58.0315C138.816 58.0314 138.684 58.094 138.587 58.2056C138.489 58.3172 138.434 58.4687 138.433 58.627C138.432 58.7853 138.486 58.9376 138.582 59.0505C138.679 59.1634 138.81 59.2278 138.948 59.2296L138.736 60.1295C137.093 62.7586 137.897 67.1259 138.736 71.5183H146.286C147.236 66.7308 147.954 62.1839 146.286 60.1295Z" fill="#CCCCCC"/>
<path d="M142.534 67.1726C143.684 67.1726 144.617 66.0991 144.617 64.7749C144.617 63.4507 143.684 62.3773 142.534 62.3773C141.384 62.3773 140.451 63.4507 140.451 64.7749C140.451 66.0991 141.384 67.1726 142.534 67.1726Z" fill="white"/>
<path d="M39.9512 107.726L39.7286 106.827H39.7786C39.9165 106.827 40.0486 106.763 40.146 106.651C40.2434 106.539 40.2981 106.386 40.2981 106.228C40.2981 106.069 40.2434 105.917 40.146 105.804C40.0486 105.692 39.9165 105.629 39.7786 105.628C37.4247 104.985 34.9726 104.985 32.6187 105.628C32.4811 105.628 32.3491 105.691 32.2516 105.802C32.154 105.914 32.0988 106.065 32.098 106.224C32.0971 106.382 32.1508 106.534 32.2472 106.647C32.3436 106.76 32.475 106.824 32.6125 106.826L32.4008 107.726C30.7579 110.355 31.5616 114.723 32.4008 119.115H39.9513C40.9004 114.327 41.6191 109.781 39.9512 107.726Z" fill="#E6E6E6"/>
<path d="M36.1987 114.769C37.349 114.769 38.2816 113.696 38.2816 112.372C38.2816 111.047 37.349 109.974 36.1987 109.974C35.0483 109.974 34.1158 111.047 34.1158 112.372C34.1158 113.696 35.0483 114.769 36.1987 114.769Z" fill="white"/>
<path d="M51.2394 107.726L51.0167 106.827H51.0668C51.2047 106.827 51.3368 106.763 51.4342 106.651C51.5315 106.539 51.5862 106.386 51.5862 106.228C51.5862 106.069 51.5315 105.917 51.4342 105.804C51.3368 105.692 51.2047 105.629 51.0668 105.628C48.7129 104.985 46.2607 104.985 43.9068 105.628C43.7693 105.628 43.6373 105.691 43.5397 105.802C43.4422 105.914 43.3869 106.065 43.3861 106.224C43.3853 106.382 43.439 106.534 43.5354 106.647C43.6318 106.76 43.7631 106.824 43.9006 106.826L43.6889 107.726C42.0461 110.355 42.8498 114.723 43.6889 119.115H51.2394C52.1886 114.327 52.9073 109.781 51.2394 107.726Z" fill="#E6E6E6"/>
<path d="M47.4867 114.769C48.6371 114.769 49.5696 113.696 49.5696 112.372C49.5696 111.047 48.6371 109.974 47.4867 109.974C46.3364 109.974 45.4038 111.047 45.4038 112.372C45.4038 113.696 46.3364 114.769 47.4867 114.769Z" fill="white"/>
<path d="M74.377 107.726L74.1543 106.827H74.2043C74.3422 106.827 74.4744 106.763 74.5717 106.651C74.6691 106.539 74.7238 106.386 74.7238 106.228C74.7238 106.069 74.6691 105.917 74.5717 105.804C74.4744 105.692 74.3422 105.629 74.2043 105.628C71.8504 104.985 69.3983 104.985 67.0444 105.628C66.9068 105.628 66.7749 105.691 66.6773 105.802C66.5797 105.914 66.5245 106.065 66.5237 106.224C66.5229 106.382 66.5765 106.534 66.6729 106.647C66.7694 106.76 66.9007 106.824 67.0382 106.826L66.8265 107.726C65.1837 110.355 65.9874 114.723 66.8265 119.115H74.377C75.3262 114.327 76.0449 109.781 74.377 107.726Z" fill="#E6E6E6"/>
<path d="M70.6243 114.769C71.7747 114.769 72.7072 113.696 72.7072 112.372C72.7072 111.047 71.7747 109.974 70.6243 109.974C69.474 109.974 68.5414 111.047 68.5414 112.372C68.5414 113.696 69.474 114.769 70.6243 114.769Z" fill="white"/>
<path d="M178.804 74.0265L158.095 72.4202C158.095 72.4202 153.297 85.1795 153.374 86.8659C153.451 88.5523 155.431 88.0443 153.373 90.581C151.315 93.1177 151.315 89.6059 151.315 93.1177C151.315 96.6296 142.995 174.593 146.656 175.295C153.063 176.349 152.758 174.944 152.758 174.944L162.812 138.686C162.812 138.686 180.963 169.233 186.622 167.569C192.282 165.905 191.199 163.706 191.199 163.706L179.073 135.374C179.073 135.374 177.266 135.37 177.52 133.033C177.775 130.695 176.232 131.09 176.232 131.09C176.232 131.09 173.915 130.259 174.777 128.896C175.639 127.534 173.351 126.746 173.351 126.746L180.029 97.3209C180.029 97.3209 184.785 84.6104 178.804 74.0265Z" fill="#2F2E41"/>
<path d="M176.978 25.3552L169.85 25.7708L167.471 30.3854C167.471 30.3854 160.69 30.9578 160.69 37.2791C160.69 43.6005 156.062 40.8496 158.224 48.8976C160.385 56.9456 160.878 58.4969 158.953 59.6527C157.029 60.8086 154.314 60.5597 156.739 62.4401C159.165 64.3205 160.08 65.0228 159.47 65.7252C158.86 66.4276 170.78 60.9016 177.633 64.367C177.633 64.367 179.55 62.6964 179.12 61.2257C178.69 59.7551 178.456 60.3237 179.183 58.9858C179.911 57.6479 187.63 34.3783 187.63 34.3783C187.63 34.3783 186.063 31.0246 182.681 31.1668C179.3 31.309 176.978 25.3552 176.978 25.3552Z" fill="#6C63FF"/>
<path d="M201.986 103.506L189.383 111.379L179.707 90.853C178.8 88.9292 178.594 86.6695 179.134 84.571C179.675 82.4724 180.917 80.707 182.588 79.663C184.26 78.619 186.223 78.382 188.046 79.0041C189.869 79.6262 191.402 81.0564 192.309 82.9802L201.986 103.506ZM189.629 110.427L201.159 103.224L191.773 83.3152C191.362 82.4435 190.806 81.6735 190.137 81.0491C189.468 80.4247 188.698 79.9582 187.872 79.6762C187.046 79.3943 186.18 79.3024 185.323 79.4058C184.467 79.5092 183.636 79.8059 182.879 80.2789C182.121 80.7519 181.453 81.3919 180.91 82.1625C180.368 82.9331 179.963 83.8191 179.718 84.7699C179.474 85.7208 179.394 86.7178 179.484 87.704C179.574 88.6903 179.832 89.6465 180.243 90.518L189.629 110.427Z" fill="#3F3D56"/>
<path d="M212.752 118.158L194.188 129.755C193.741 130.036 193.227 130.145 192.722 130.067C192.218 129.989 191.748 129.727 191.381 129.32L178.845 115.468C178.572 115.167 178.366 114.796 178.241 114.386C178.117 113.975 178.078 113.537 178.128 113.106C178.179 112.675 178.317 112.264 178.531 111.906C178.745 111.548 179.03 111.254 179.362 111.047L207.205 93.653C207.537 93.4457 207.907 93.3315 208.285 93.3196C208.662 93.3077 209.037 93.3986 209.378 93.5847C209.719 93.7709 210.017 94.0471 210.249 94.3909C210.48 94.7347 210.637 95.1365 210.708 95.5635L213.965 115.212C214.062 115.788 213.996 116.384 213.778 116.914C213.56 117.443 213.2 117.879 212.752 118.158Z" fill="#6C63FF"/>
<path d="M193.356 102.504L191.479 103.677L193.226 107.381L195.103 106.208L193.356 102.504Z" fill="#3F3D56"/>
<path d="M188.501 62.315L187.956 40.2906C187.931 39.3576 187.588 38.4735 187.001 37.8291C186.414 37.1848 185.631 36.8318 184.82 36.8464C184.4 36.854 183.987 36.9598 183.604 37.1574C183.221 37.355 182.877 37.6403 182.593 37.9958C182.31 38.3514 182.092 38.7698 181.953 39.2255C181.814 39.6812 181.757 40.1647 181.786 40.6465L182.961 63.5045L183.167 77.4285C182.661 77.6864 182.236 78.1175 181.95 78.6632C181.664 79.2088 181.531 79.8426 181.568 80.4784C181.606 81.1141 181.813 81.7211 182.161 82.2168C182.509 82.7125 182.981 83.0729 183.513 83.249C184.045 83.4251 184.611 83.4084 185.135 83.2011C185.659 82.9939 186.114 82.6062 186.439 82.0906C186.765 81.5751 186.944 80.9567 186.954 80.3195C186.963 79.6824 186.802 79.0573 186.492 78.5292L188.501 62.315Z" fill="#A0616A"/>
<path d="M189.825 44.7209C189.965 44.5572 190.055 44.3452 190.08 44.1174C190.105 43.8896 190.065 43.6586 189.965 43.4598C189.845 43.2119 189.796 42.9273 189.824 42.6457C189.83 42.5914 189.839 42.5375 189.851 42.4845C189.931 42.1672 189.943 41.8324 189.886 41.5087C189.829 41.185 189.705 40.8818 189.525 40.6249C188.921 39.7895 188.629 38.5247 188.503 37.3973C188.365 36.1635 188.282 34.9026 187.892 33.7428C187.328 32.0698 185.981 30.5788 184.143 31.2924C183.365 31.6099 182.706 32.2262 182.277 33.0377C181.36 34.7204 181.351 36.7551 181.357 38.7017L181.028 37.9325C181.067 40.0585 180.733 42.1717 180.046 44.1455C180.456 44.054 180.745 44.6877 180.613 45.1433C180.48 45.599 180.114 45.8984 179.801 46.2154C179.405 46.6149 179.032 47.2083 179.403 47.8188C179.495 47.9619 179.612 48.0816 179.747 48.1702C179.881 48.2588 180.03 48.3144 180.184 48.3336C183.087 48.7681 186.036 48.5067 188.847 47.5661C189.471 47.3568 190.14 47.0661 190.465 46.4179C190.79 45.7697 190.475 44.7105 189.825 44.7209Z" fill="#6C63FF"/>
<path d="M183.818 14.2561C183.409 15.998 183.879 18.7407 184.056 20.3667C184.245 22.1051 181.627 23.6609 180.129 23.7592C180.166 23.1838 180.026 22.6118 179.732 22.1437C179.729 22.7004 179.629 23.2507 179.44 23.7627H166.94C165.366 20.3527 164.027 15.6924 165.473 10.8742C165.546 9.90647 165.866 8.98525 166.393 8.22614C166.919 7.46702 167.629 6.90383 168.432 6.60725L175.248 4.09627C177.936 4.09627 181.233 4.53525 182.719 6.83903C183.377 7.89968 183.817 9.11798 184.008 10.4025C184.198 11.6871 184.133 13.0045 183.818 14.2561Z" fill="#2F2E41"/>
<path d="M172.432 23.4115C176.307 23.4115 179.449 19.7952 179.449 15.3342C179.449 10.8733 176.307 7.25694 172.432 7.25694C168.556 7.25694 165.415 10.8733 165.415 15.3342C165.415 19.7952 168.556 23.4115 172.432 23.4115Z" fill="#A0616A"/>
<path d="M181.279 13.2271V14.983H175.208C175.27 14.6441 175.27 14.2941 175.208 13.955C175.147 13.616 175.025 13.2952 174.851 13.0129C174.846 13.7001 174.698 14.3759 174.418 14.983C170.907 16.178 167.961 16.1551 165.546 14.983C165.369 14.983 165.193 14.9428 165.029 14.8646C164.865 14.7864 164.716 14.6718 164.591 14.5273C164.465 14.3828 164.365 14.2112 164.297 14.0225C164.23 13.8337 164.195 13.6313 164.195 13.427C164.195 8.04335 167.881 3.50699 172.557 3.39603C173.694 3.36832 174.824 3.60214 175.881 4.08376C176.938 4.56538 177.901 5.28513 178.714 6.20079C179.526 7.11645 180.171 8.2096 180.612 9.41614C181.052 10.6227 181.279 11.9183 181.279 13.2271V13.2271Z" fill="#2F2E41"/>
<path d="M180.083 1.3285C179.359 0.938879 178.545 0.773763 177.974 1.52588e-05L178.19 1.31077C177.016 0.588266 175.652 0.392073 174.361 0.760111C173.981 0.847635 173.631 1.05696 173.35 1.36394C173.194 1.55303 173.077 1.77991 173.008 2.02787C172.939 2.27582 172.919 2.53853 172.949 2.79662C172.983 3.01996 173.057 3.23276 173.166 3.42144C173.275 3.61013 173.417 3.77054 173.583 3.89243C173.881 4.08722 174.209 4.21562 174.549 4.27092C175.961 4.60136 177.373 4.93179 178.785 5.26221C179.313 5.44078 179.871 5.46131 180.408 5.32185C180.701 5.20637 180.959 4.99478 181.15 4.71306C181.34 4.43133 181.455 4.09173 181.48 3.73593C181.56 2.61678 180.806 1.71809 180.083 1.3285Z" fill="#2F2E41"/>
<path d="M65.6354 62.7448L32.1897 75.1685C31.8916 75.2788 31.5677 75.2485 31.2889 75.0842C31.0102 74.9199 30.7995 74.635 30.703 74.2921L26.4726 59.2013C26.3767 58.8581 26.4031 58.4852 26.5458 58.1644C26.6885 57.8435 26.936 57.601 27.2339 57.4899L60.6796 45.0662C60.9777 44.9559 61.3016 44.9862 61.5803 45.1505C61.8591 45.3148 62.0698 45.5997 62.1663 45.9426L66.3967 61.0334C66.4925 61.3766 66.4662 61.7495 66.3235 62.0703C66.1807 62.3912 65.9333 62.6337 65.6354 62.7448Z" fill="#F2F2F2"/>
<path d="M57.6038 64.8171L37.2674 72.3712C35.7514 72.9322 34.104 72.778 32.6866 71.9425C31.2693 71.1071 30.1976 69.6585 29.7069 67.9147L28.9029 65.0467C28.4156 63.3016 28.5495 61.4053 29.2753 59.7737C30.0011 58.1421 31.2595 56.9086 32.7744 56.3437L55.6023 47.8641C57.1183 47.3032 58.7657 47.4573 60.183 48.2928C61.6004 49.1283 62.672 50.5768 63.1627 52.3207C63.8624 54.8264 63.6701 57.5493 62.628 59.892C61.5858 62.2347 59.779 64.006 57.6038 64.8171Z" fill="white"/>
<path d="M49.0759 55.0582L35.6333 60.0516C35.5952 60.0657 35.5551 60.0711 35.5152 60.0674C35.4753 60.0637 35.4365 60.051 35.4009 60.03C35.3653 60.009 35.3336 59.9802 35.3077 59.9451C35.2818 59.91 35.2621 59.8694 35.2498 59.8256C35.2375 59.7818 35.2329 59.7356 35.2361 59.6897C35.2393 59.6438 35.2504 59.5991 35.2686 59.5581C35.2868 59.5171 35.3119 59.4806 35.3424 59.4508C35.3728 59.421 35.4081 59.3983 35.4462 59.3842L48.8888 54.3908C48.9656 54.3626 49.049 54.3705 49.1208 54.4129C49.1925 54.4553 49.2467 54.5288 49.2715 54.6171C49.2962 54.7055 49.2896 54.8015 49.2529 54.8842C49.2162 54.9669 49.1526 55.0295 49.0759 55.0582Z" fill="#E6E6E6"/>
<path d="M56.8788 56.0908L36.6313 63.6119C36.5932 63.6262 36.553 63.6316 36.5131 63.628C36.4732 63.6243 36.4343 63.6117 36.3986 63.5907C36.363 63.5697 36.3312 63.5408 36.3053 63.5057C36.2793 63.4706 36.2596 63.43 36.2473 63.3861C36.235 63.3422 36.2304 63.296 36.2336 63.2501C36.2368 63.2041 36.2479 63.1593 36.2662 63.1183C36.2845 63.0773 36.3096 63.0408 36.3402 63.011C36.3707 62.9812 36.4061 62.9586 36.4442 62.9445L56.6917 55.4234C56.7686 55.3949 56.8522 55.4026 56.9241 55.445C56.996 55.4874 57.0503 55.561 57.0751 55.6495C57.1 55.738 57.0932 55.8342 57.0564 55.917C57.0196 55.9997 56.9557 56.0623 56.8788 56.0908Z" fill="#E6E6E6"/>
<path d="M57.8769 59.6512L37.6294 67.1723C37.5914 67.1864 37.5512 67.1918 37.5114 67.1881C37.4715 67.1844 37.4326 67.1717 37.397 67.1507C37.3614 67.1297 37.3298 67.1008 37.3038 67.0658C37.2779 67.0307 37.2583 66.9901 37.246 66.9462C37.2337 66.9024 37.229 66.8562 37.2322 66.8103C37.2355 66.7645 37.2465 66.7197 37.2647 66.6788C37.283 66.6378 37.308 66.6013 37.3385 66.5715C37.369 66.5416 37.4043 66.519 37.4423 66.5049L57.6898 58.9838C57.7667 58.9554 57.8501 58.9633 57.9219 59.0057C57.9937 59.0481 58.0479 59.1216 58.0727 59.21C58.0975 59.2984 58.0908 59.3945 58.0541 59.4772C58.0174 59.5599 57.9537 59.6225 57.8769 59.6512Z" fill="#E6E6E6"/>
<path d="M57.8769 59.6512L37.6294 67.1723C37.5914 67.1864 37.5512 67.1918 37.5114 67.1881C37.4715 67.1844 37.4326 67.1717 37.397 67.1507C37.3614 67.1297 37.3298 67.1008 37.3038 67.0658C37.2779 67.0307 37.2583 66.9901 37.246 66.9462C37.2337 66.9024 37.229 66.8562 37.2322 66.8103C37.2355 66.7645 37.2465 66.7197 37.2647 66.6788C37.283 66.6378 37.308 66.6013 37.3385 66.5715C37.369 66.5416 37.4043 66.519 37.4423 66.5049L57.6898 58.9838C57.7667 58.9554 57.8501 58.9633 57.9219 59.0057C57.9937 59.0481 58.0479 59.1216 58.0727 59.21C58.0975 59.2984 58.0908 59.3945 58.0541 59.4772C58.0174 59.5599 57.9537 59.6225 57.8769 59.6512Z" fill="#E6E6E6"/>
<path d="M59.5376 51.4209C61.4839 51.4209 63.0617 49.6047 63.0617 47.3643C63.0617 45.1239 61.4839 43.3077 59.5376 43.3077C57.5913 43.3077 56.0135 45.1239 56.0135 47.3643C56.0135 49.6047 57.5913 51.4209 59.5376 51.4209Z" fill="#6C63FF"/>
<path d="M59.4137 48.9916C59.3664 48.9916 59.3197 48.9789 59.2774 48.9546C59.2351 48.9302 59.1983 48.8949 59.17 48.8513L58.4228 47.7044C58.3986 47.6676 58.3811 47.6257 58.3711 47.581C58.361 47.5363 58.3588 47.4898 58.3644 47.4442C58.37 47.3985 58.3834 47.3546 58.4038 47.3149C58.4242 47.2751 58.4512 47.2405 58.4833 47.2128C58.5153 47.1851 58.5518 47.165 58.5906 47.1536C58.6294 47.1422 58.6698 47.1397 58.7095 47.1462C58.7492 47.1528 58.7873 47.1683 58.8218 47.1919C58.8562 47.2155 58.8863 47.2467 58.9102 47.2836L59.3991 48.0339L60.6546 45.866C60.6994 45.7886 60.7691 45.7349 60.8484 45.7166C60.9276 45.6984 61.0099 45.7171 61.0771 45.7687C61.1443 45.8203 61.191 45.9005 61.2069 45.9918C61.2227 46.083 61.2064 46.1777 61.1616 46.2551L59.6672 48.8354C59.6402 48.8821 59.6038 48.9206 59.5612 48.9478C59.5185 48.9749 59.4709 48.9899 59.4222 48.9915L59.4137 48.9916Z" fill="white"/>
</g>
<defs>
<clipPath id="clip0_19_723">
<rect width="215" height="197" fill="white"/>
</clipPath>
</defs>
</svg>
