<svg width="142" height="140" viewBox="0 0 142 140" fill="none" xmlns="http://www.w3.org/2000/svg">
<g clip-path="url(#clip0_23_59)">
<path d="M72.2702 91.3891C84.9993 91.3891 95.3182 81.2154 95.3182 68.6656C95.3182 56.1158 84.9993 45.9422 72.2702 45.9422C59.5411 45.9422 49.2222 56.1158 49.2222 68.6656C49.2222 81.2154 59.5411 91.3891 72.2702 91.3891Z" fill="#A0616A"/>
<path d="M53.1934 96.4773L57.9979 84.372L82.8212 80.6878L85.4883 107.484L60.398 108.011L53.1934 96.4773Z" fill="#A0616A"/>
<path d="M95.5416 72.8582C95.2424 74.0397 94.6378 76.8529 93.6935 76.8668C92.922 76.8778 92.1836 64.6734 92.9542 62.6547C93.8394 60.3356 91.5132 57.4019 89.7608 55.896C86.6101 53.1883 79.6161 59.0025 72.5043 56.3686C72.3158 56.2989 72.3533 56.3067 70.1076 55.4234C63.1972 52.705 62.8339 52.6266 62.438 52.5878C59.0881 52.2611 54.9998 54.9637 53.3304 58.259C51.595 61.6844 53.045 64.6224 51.413 72.9095C51.2228 73.8754 50.9242 75.2521 50.4543 75.2724C49.5953 75.3094 48.7566 70.786 48.5369 69.6013C47.6166 64.6376 46.7293 59.8521 48.5369 54.4782C48.7341 53.8921 49.9493 51.7165 52.3717 47.3893C55.8615 41.1555 57.6167 38.0269 58.1239 37.4647C61.7616 33.4315 68.383 29.7523 73.9423 31.321C76.7522 32.1139 76.2484 33.3886 79.6945 34.6291C85.8358 36.8398 91.1732 34.1362 92.1575 36.0469C92.679 37.059 91.22 37.8935 91.1988 39.8277C91.1626 43.1465 95.4199 44.1055 97.9097 47.3893C99.2482 49.1546 101.539 49.1735 95.5415 72.8582L95.5416 72.8582V72.8582Z" fill="#2F2E41"/>
<path d="M124.095 116.476C123.166 117.505 122.203 118.513 121.204 119.498C107.795 132.718 89.9645 140 71 140C54.6086 140 39.066 134.561 26.4915 124.547C26.4835 124.542 26.4782 124.537 26.4702 124.529C24.802 123.203 23.1871 121.792 21.6283 120.303C21.6576 120.071 21.6897 119.842 21.7243 119.616C21.9432 118.09 22.1862 116.634 22.4584 115.295C24.6872 104.316 54.0134 92.7896 54.7767 92.4895C54.7874 92.4869 54.7928 92.4843 54.7928 92.4843C54.7928 92.4843 58.567 106.2 74.7395 106.024C85.7552 105.905 83.6198 92.4843 83.6198 92.4843C83.6198 92.4843 83.7533 92.5105 84.0042 92.5632C87.1858 93.2291 109.276 98.0132 117.991 104.542C120.647 106.532 122.552 110.769 123.922 115.821C123.98 116.037 124.036 116.258 124.095 116.476Z" fill="#6C63FF"/>
<path d="M121.204 20.5027C107.795 7.28181 89.9645 0 71 0C52.0355 0 34.2055 7.28181 20.7955 20.5027C7.38565 33.7238 0 51.3027 0 70C0 87.0659 6.15246 103.2 17.427 115.94C18.5027 117.158 19.6264 118.345 20.7955 119.498C21.0704 119.768 21.348 120.04 21.6283 120.303C23.1871 121.792 24.802 123.203 26.4702 124.529C26.4782 124.537 26.4835 124.542 26.4915 124.547C39.066 134.561 54.6086 140 71 140C89.9645 140 107.795 132.718 121.204 119.498C122.203 118.513 123.166 117.505 124.095 116.476C135.671 103.655 142 87.308 142 70C142 51.3027 134.614 33.7238 121.204 20.5027ZM123.922 115.821C121.821 118.176 119.563 120.392 117.161 122.448C112.604 126.355 107.533 129.692 102.064 132.35C100.145 133.284 98.1775 134.134 96.165 134.895C88.347 137.853 79.8616 139.474 71 139.474C62.448 139.474 54.2483 137.963 46.6598 135.2C43.5449 134.068 40.5341 132.724 37.6434 131.184C37.2189 130.958 36.7972 130.729 36.3782 130.495C34.1734 129.263 32.0408 127.919 29.9935 126.466C27.0601 124.392 24.2948 122.1 21.7244 119.616C20.283 118.224 18.9058 116.774 17.5899 115.266C6.9639 103.098 0.533835 87.2764 0.533835 70C0.533835 31.6923 32.1448 0.526316 71 0.526316C109.855 0.526316 141.466 31.6923 141.466 70C141.466 87.5422 134.839 103.584 123.922 115.821Z" fill="#3F3D56"/>
</g>
<defs>
<clipPath id="clip0_23_59">
<rect width="142" height="140" fill="white"/>
</clipPath>
</defs>
</svg>
